<svg width="22" height="22" viewBox="0 0 22 22" fill="none" xmlns="http://www.w3.org/2000/svg">
<path d="M4.69796 3.66669C3.93822 3.66669 3.2096 3.96849 2.67239 4.5057C2.13518 5.04292 1.83337 5.77154 1.83337 6.53127V15.4688C1.83337 16.2285 2.13518 16.9571 2.67239 17.4943C3.2096 18.0316 3.93822 18.3334 4.69796 18.3334H17.3021C18.0619 18.3334 18.7905 18.0316 19.3277 17.4943C19.8649 16.9571 20.1667 16.2285 20.1667 15.4688V6.53127C20.1667 5.77154 19.8649 5.04292 19.3277 4.5057C18.7905 3.96849 18.0619 3.66669 17.3021 3.66669H4.69796ZM2.97921 6.53127C2.97921 6.07543 3.16029 5.63826 3.48262 5.31593C3.80495 4.9936 4.24212 4.81252 4.69796 4.81252H17.3021C17.758 4.81252 18.1951 4.9936 18.5175 5.31593C18.8398 5.63826 19.0209 6.07543 19.0209 6.53127V6.93919L11.001 11.1604L2.97921 6.9039V6.53127ZM2.97921 8.20144L10.7315 12.3145C10.8139 12.3582 10.9057 12.3812 10.999 12.3814C11.0923 12.3815 11.1842 12.3589 11.2668 12.3154L19.0209 8.23398V15.4688C19.0209 15.9246 18.8398 16.3618 18.5175 16.6841C18.1951 17.0064 17.758 17.1875 17.3021 17.1875H4.69796C4.24212 17.1875 3.80495 17.0064 3.48262 16.6841C3.16029 16.3618 2.97921 15.9246 2.97921 15.4688V8.20144Z" fill="white" fill-opacity="0.98"/>
</svg>
