<svg width="48" height="49" viewBox="0 0 48 49" fill="none" xmlns="http://www.w3.org/2000/svg">
<path d="M16.7412 8.80799C17.0869 8.47906 17.549 8.30085 18.0261 8.31255C18.5031 8.32425 18.956 8.5249 19.2852 8.87039L31.29 21.4704C31.6091 21.8052 31.7871 22.2499 31.7871 22.7124C31.7871 23.1749 31.6091 23.6196 31.29 23.9544L19.2876 36.5544C18.9553 36.8861 18.5066 37.0748 18.0372 37.0804C17.5677 37.086 17.1147 36.9079 16.7747 36.5841C16.4346 36.2604 16.2346 35.8166 16.2171 35.3475C16.1996 34.8783 16.3662 34.4209 16.6812 34.0728L27.5004 22.7112L16.6812 11.3496C16.3519 11.0042 16.1733 10.5422 16.1845 10.0652C16.1958 9.58813 16.396 9.13748 16.7412 8.80799Z" fill="black"/>
</svg>
