<svg width="22" height="22" viewBox="0 0 22 22" fill="none" xmlns="http://www.w3.org/2000/svg">
<path d="M17 5.77586C17 5.57009 16.9175 5.37275 16.7708 5.22724C16.624 5.08174 16.425 5 16.2174 5H8.39149C8.18393 5 7.98487 5.08174 7.83811 5.22724C7.69134 5.37275 7.60889 5.57009 7.60889 5.77586C7.60889 5.98163 7.69134 6.17898 7.83811 6.32448C7.98487 6.46998 8.18393 6.55172 8.39149 6.55172H14.2682L5.22773 15.5734C5.08133 15.7194 4.99942 15.917 5 16.1229C5.00059 16.3287 5.08363 16.5259 5.23086 16.671C5.37808 16.8162 5.57743 16.8974 5.78506 16.8968C5.99268 16.8962 6.19157 16.8139 6.33796 16.6679L15.4348 7.58931V13.5345C15.4348 13.7403 15.5173 13.9376 15.664 14.0831C15.8108 14.2286 16.0099 14.3103 16.2174 14.3103C16.425 14.3103 16.624 14.2286 16.7708 14.0831C16.9175 13.9376 17 13.7403 17 13.5345V5.77586Z" fill="#FCFCFE"/>
<path fill-rule="evenodd" clip-rule="evenodd" d="M14.51 6.45172H8.39149C8.21017 6.45172 8.03646 6.38031 7.90851 6.25346C7.7806 6.12665 7.70889 5.95483 7.70889 5.77586C7.70889 5.59689 7.7806 5.42508 7.90851 5.29826C8.03646 5.17141 8.21017 5.1 8.39149 5.1H16.2174C16.3987 5.1 16.5724 5.17141 16.7004 5.29826C16.8283 5.42508 16.9 5.59689 16.9 5.77586V13.5345C16.9 13.7135 16.8283 13.8853 16.7004 14.0121C16.5724 14.1389 16.3987 14.2103 16.2174 14.2103C16.0361 14.2103 15.8624 14.1389 15.7344 14.0121C15.6065 13.8853 15.5348 13.7135 15.5348 13.5345V7.34823L6.26736 16.5971C6.13973 16.7244 5.96616 16.7963 5.78478 16.7968C5.6034 16.7973 5.42942 16.7264 5.30106 16.5998C5.17273 16.4733 5.10051 16.3016 5.1 16.1226C5.09949 15.9436 5.17073 15.7715 5.29833 15.6443L14.51 6.45172ZM6.33796 16.6679L15.4348 7.58931V13.5345C15.4348 13.7403 15.5173 13.9376 15.664 14.0831C15.8108 14.2286 16.0099 14.3103 16.2174 14.3103C16.425 14.3103 16.624 14.2286 16.7708 14.0831C16.9175 13.9376 17 13.7403 17 13.5345V5.77586C17 5.57009 16.9175 5.37275 16.7708 5.22724C16.624 5.08174 16.425 5 16.2174 5H8.39149C8.18393 5 7.98487 5.08174 7.83811 5.22724C7.69134 5.37275 7.60889 5.57009 7.60889 5.77586C7.60889 5.98163 7.69134 6.17898 7.83811 6.32448C7.98487 6.46998 8.18393 6.55172 8.39149 6.55172H14.2682L5.22773 15.5734C5.08133 15.7194 4.99942 15.917 5 16.1229C5.00059 16.3287 5.08363 16.5259 5.23086 16.671C5.37808 16.8162 5.57744 16.8974 5.78506 16.8968C5.99268 16.8962 6.19157 16.8139 6.33796 16.6679Z" fill="#0A0A0A"/>
</svg>
